<svg height="78" viewBox="0 0 78 78" width="78" xmlns="http://www.w3.org/2000/svg"><g fill="none" fill-rule="evenodd" transform=""><path d="m77.105 38.981c0 21.182-17.171 38.353-38.353 38.353-21.181 0-38.351-17.171-38.351-38.353 0-21.181 17.17-38.352 38.351-38.352 21.182 0 38.353 17.171 38.353 38.352" fill="#558dfc"/><g fill="#fffffe"><path d="m26.71 34.75h-6.594c-1.222 0-2.222 1-2.222 2.221v18.279c0 1.221 1 2.221 2.222 2.221h6.594c1.223 0 2.223-1 2.223-2.221v-18.279c0-1.221-1-2.221-2.223-2.221"/><path d="m56.492 36.9h-.393c1.931 0 3.512-1.58 3.512-3.512 0-1.931-1.581-3.512-3.512-3.512h-11.267c1.39-2.189 3.275-5.679 3.275-8.53 0-4.515-2.474-7.024-4.086-7.311-1.613-.287-2.795.573-3.262 1.935-.466 1.362.359 3.944.04 4.865-.492 1.421-2.978 3.322-6.348 7.643-3.009 3.862-2.58 8.422-2.58 8.422v15.375c0 1.202.984 2.187 2.187 2.187h20.929c1.4 0 2.545-1.146 2.545-2.545 0-1.4-1.145-2.545-2.545-2.545h.359c1.715 0 3.118-1.403 3.118-3.117 0-1.715-1.403-3.119-3.118-3.119h1.146c1.715 0 3.119-1.403 3.119-3.118s-1.404-3.118-3.119-3.118"/></g></g></svg>