<svg height="77" viewBox="0 0 78 77" width="78" xmlns="http://www.w3.org/2000/svg"><g fill="none" fill-rule="evenodd" transform="translate(0 -.597)"><path d="m77.308 38.981c0 21.182-17.171 38.353-38.352 38.353s-38.352-17.171-38.352-38.353c0-21.181 17.171-38.352 38.352-38.352s38.352 17.171 38.352 38.352" fill="#ea4d64"/><path d="m61.398 33.608c0-7.523-5.803-12.9-11.721-12.9-4.98 0-9.43 3.325-10.721 7.903-1.291-4.578-5.741-7.903-10.72-7.903-5.919 0-11.722 5.377-11.722 12.9 0 11.4 17.488 24.45 21.803 25.817l.252.073c.136.031.258.051.356.051l.031-.004.03.004c.099 0 .22-.02.356-.051l.253-.073c4.314-1.367 21.803-14.417 21.803-25.817" fill="#fffffe"/></g></svg>