<svg height="112" viewBox="0 0 112 112" width="112" xmlns="http://www.w3.org/2000/svg" xmlns:xlink="http://www.w3.org/1999/xlink"><radialGradient id="a" cx="50%" cy="50%" r="54.525862%"><stop offset="0" stop-color="#ffdc60"/><stop offset="1" stop-color="#ffe060"/></radialGradient><g fill="none" fill-rule="evenodd" transform=""><circle cx="56" cy="56" fill="url(#a)" r="56"/><ellipse cx="30.597199" cy="44" fill="#272232" rx="8" ry="12" transform="matrix(.99254615 .12186934 -.12186934 .99254615 5.590318 -3.400891)"/><ellipse cx="82" cy="44" fill="#272232" rx="8" ry="12" transform="matrix(.99254615 -.12186934 -.12186934 -.99254615 5.973467 97.665317)"/><ellipse cx="56" cy="79" fill="#1d2a32" rx="16" ry="23"/><g stroke="#200900" stroke-linecap="round" stroke-linejoin="round" stroke-width="5"><path d="m38 16c-1.9837468-1.1428228-3.7452891-2-6-2-4.200886 0-7.6900128 1.5565436-10 4"/><path d="m90 16c-1.9837468-1.1428228-3.7452891-2-6-2-4.200886 0-7.6900128 1.5565436-10 4" transform="matrix(-1 0 0 1 164 0)"/></g></g></svg>